HIERARCHY
ROOT Hips
{
    OFFSET 0.0 0.0 0.0
    CHANNELS 6 Xposition Yposition Zposition Zrotation Xrotation Yrotation
    JOINT LeftUpLeg
    {
        OFFSET 13.369526841432876 0.0 0.0
        CHANNELS 3 Zrotation Xrotation Yrotation
        JOINT LeftLeg
        {
            OFFSET 0.0 0.0 -52.097026264747214
            CHANNELS 3 Zrotation Xrotation Yrotation
            JOINT LeftFoot
            {
                OFFSET 0.0 0.0 -41.0304722306398
                CHANNELS 3 Zrotation Xrotation Yrotation
                JOINT LeftToeBase
                {
                    OFFSET 0.0 -11.058210382269715 0.0
                    CHANNELS 3 Zrotation Xrotation Yrotation
                    End Site
                    {
                        OFFSET 0 0 0
                    }
                }
            }
        }
    }
    JOINT RightUpLeg
    {
        OFFSET -13.369526841432876 0.0 0.0
        CHANNELS 3 Zrotation Xrotation Yrotation
        JOINT RightLeg
        {
            OFFSET 0.0 0.0 -52.097026264747214
            CHANNELS 3 Zrotation Xrotation Yrotation
            JOINT RightFoot
            {
                OFFSET 0.0 0.0 -41.0304722306398
                CHANNELS 3 Zrotation Xrotation Yrotation
                JOINT RightToeBase
                {
                    OFFSET 0.0 -11.058210382269715 0.0
                    CHANNELS 3 Zrotation Xrotation Yrotation
                    End Site
                    {
                        OFFSET 0 0 0
                    }
                }
            }
        }
    }
    JOINT Spine
    {
        OFFSET 0.0 0.0 11.822208291482081
        CHANNELS 3 Zrotation Xrotation Yrotation
        JOINT Spine1
        {
            OFFSET 0.0 0.0 11.471513356889483
            CHANNELS 3 Zrotation Xrotation Yrotation
            JOINT Spine2
            {
                OFFSET 0.0 0.0 11.471513356889483
                CHANNELS 3 Zrotation Xrotation Yrotation
                JOINT Spine3
                {
                    OFFSET 0.0 0.0 11.471513356889478
                    CHANNELS 3 Zrotation Xrotation Yrotation
                    JOINT Spine4
                    {
                        OFFSET 0.0 0.0 11.471513356889488
                        CHANNELS 3 Zrotation Xrotation Yrotation
                        JOINT RightShoulder
                        {
                            OFFSET -22.120910896111607 0.0 0.0
                            CHANNELS 3 Zrotation Xrotation Yrotation
                            JOINT RightArm
                            {
                                OFFSET -32.63216859224583 0.0 0.0
                                CHANNELS 3 Zrotation Xrotation Yrotation
                                JOINT RightForeArm
                                {
                                    OFFSET -32.230719730998395 0.0 0.0
                                    CHANNELS 3 Zrotation Xrotation Yrotation
                                    JOINT RightHand
                                    {
                                        OFFSET -11.168754675699436 0.0 0.0
                                        CHANNELS 3 Zrotation Xrotation Yrotation
                                        End Site
                                        {
                                            OFFSET 0 0 0
                                        }
                                    }
                                }
                            }
                        }
                        JOINT LeftShoulder
                        {
                            OFFSET 22.120910896111607 0.0 0.0
                            CHANNELS 3 Zrotation Xrotation Yrotation
                            JOINT LeftArm
                            {
                                OFFSET 32.63216859224583 0.0 0.0
                                CHANNELS 3 Zrotation Xrotation Yrotation
                                JOINT LeftForeArm
                                {
                                    OFFSET 32.230719730998395 0.0 0.0
                                    CHANNELS 3 Zrotation Xrotation Yrotation
                                    JOINT LeftHand
                                    {
                                        OFFSET 11.168754675699436 0.0 0.0
                                        CHANNELS 3 Zrotation Xrotation Yrotation
                                        End Site
                                        {
                                            OFFSET 0 0 0
                                        }
                                    }
                                }
                            }
                        }
                        JOINT Neck
                        {
                            OFFSET 0.0 0.0 11.471513407341419
                            CHANNELS 3 Zrotation Xrotation Yrotation
                            JOINT Head
                            {
                                OFFSET 0.0 0.0 25.96941054998569
                                CHANNELS 3 Zrotation Xrotation Yrotation
                                End Site
                                {
                                    OFFSET 0 0 0
                                }
                            }
                        }
                    }
                }
            }
        }
    }
}
MOTION
Frames: 4
Frame Time: 0.03333333333333333
62.74027218818665 -1.8721941769123078 547.6842761993408 17.417252802486395 -58.853182718597836 18.25668576841434 9.183674299431882 -29.270582941745516 2.128521644098276 18.812086226210937 -14.713275531564806 16.97459177944432 -165.41379430903902 -1.5902773407317584e-14 36.88078058030715 0.0 0.0 0.0 -7.559426345789602 -33.1694884305054 10.557840304400951 -7.356186996834708 -5.009562748585147 -29.64274521864696 141.40706688942896 -9.54166404439055e-15 -39.836089268110285 0.0 0.0 0.0 2.653886993451262 -31.183826564982255 5.610425365443408 7.951386703658792e-16 -9.93923337957349e-17 6.896728590703373e-34 7.951386703658792e-16 -9.93923337957349e-17 6.896728590703373e-34 7.951386703658792e-16 -9.93923337957349e-17 6.896728590703373e-34 7.951386703658792e-16 -9.93923337957349e-17 6.896728590703373e-34 -171.99668428293916 -25.676066893085906 -168.97244926690271 58.92079484223685 -2.602752218079529e-15 -2.1826958925974595e-15 -1.337086812629316e-12 89.90322102541981 1.3258418497029561e-12 0.0 0.0 0.0 160.6219738175957 -17.108356092983307 175.30806211001718 -60.86552935842022 1.881966830441797e-14 2.2122243333494205e-14 -180.0 -70.76298397273612 -180.0 1.5902773407317584e-15 -2.9311096510489336e-32 -2.1120870931593667e-15 -8.56244607649462 9.285698101125976e-15 -3.0156957929105964e-16 -1.987846675914698e-16 8.620910738379216e-35 -4.969616689786745e-17
62.74027218818665 -1.8721941769123078 547.6842761993408 17.417252802486395 -58.853182718597836 18.25668576841434 9.183674299431882 -29.270582941745516 2.128521644098276 18.812086226210937 -14.713275531564806 16.97459177944432 -165.41379430903902 -1.5902773407317584e-14 36.88078058030715 0.0 0.0 0.0 -7.559426345789602 -33.1694884305054 10.557840304400951 -7.356186996834708 -5.009562748585147 -29.64274521864696 141.40706688942896 -9.54166404439055e-15 -39.836089268110285 0.0 0.0 0.0 2.653886993451262 -31.183826564982255 5.610425365443408 7.951386703658792e-16 -9.93923337957349e-17 6.896728590703373e-34 7.951386703658792e-16 -9.93923337957349e-17 6.896728590703373e-34 7.951386703658792e-16 -9.93923337957349e-17 6.896728590703373e-34 7.951386703658792e-16 -9.93923337957349e-17 6.896728590703373e-34 -171.99668428293916 -25.676066893085906 -168.97244926690271 58.92079484223685 -2.602752218079529e-15 -2.1826958925974595e-15 -1.337086812629316e-12 89.90322102541981 1.3258418497029561e-12 0.0 0.0 0.0 160.6219738175957 -17.108356092983307 175.30806211001718 -60.86552935842022 1.881966830441797e-14 2.2122243333494205e-14 -180.0 -70.76298397273612 -180.0 1.5902773407317584e-15 -2.9311096510489336e-32 -2.1120870931593667e-15 -8.56244607649462 9.285698101125976e-15 -3.0156957929105964e-16 -1.987846675914698e-16 8.620910738379216e-35 -4.969616689786745e-17
62.74027218818665 -1.8721941769123078 547.6842761993408 17.417252802486395 -58.853182718597836 18.25668576841434 9.183674299431882 -29.270582941745516 2.128521644098276 18.812086226210937 -14.713275531564806 16.97459177944432 -165.41379430903902 -1.5902773407317584e-14 36.88078058030715 0.0 0.0 0.0 -7.559426345789602 -33.1694884305054 10.557840304400951 -7.356186996834708 -5.009562748585147 -29.64274521864696 141.40706688942896 -9.54166404439055e-15 -39.836089268110285 0.0 0.0 0.0 2.653886993451262 -31.183826564982255 5.610425365443408 7.951386703658792e-16 -9.93923337957349e-17 6.896728590703373e-34 7.951386703658792e-16 -9.93923337957349e-17 6.896728590703373e-34 7.951386703658792e-16 -9.93923337957349e-17 6.896728590703373e-34 7.951386703658792e-16 -9.93923337957349e-17 6.896728590703373e-34 -171.99668428293916 -25.676066893085906 -168.97244926690271 58.92079484223685 -2.602752218079529e-15 -2.1826958925974595e-15 -1.337086812629316e-12 89.90322102541981 1.3258418497029561e-12 0.0 0.0 0.0 160.6219738175957 -17.108356092983307 175.30806211001718 -60.86552935842022 1.881966830441797e-14 2.2122243333494205e-14 -180.0 -70.76298397273612 -180.0 1.5902773407317584e-15 -2.9311096510489336e-32 -2.1120870931593667e-15 -8.56244607649462 9.285698101125976e-15 -3.0156957929105964e-16 -1.987846675914698e-16 8.620910738379216e-35 -4.969616689786745e-17
62.65958318710327 -1.988763175159693 547.9139820098877 19.498676310826365 -58.60036060597666 20.092270604684348 9.092878872519199 -29.394422158610503 2.8777348280827155 17.50628844212271 -14.213070200640896 16.3098879065301 -166.51785330153876 4.770832022195275e-15 36.604381653966094 0.0 0.0 -1.590277340731758e-15 -7.345597792952082 -32.89980816186632 11.628975930666673 -7.273630600816757 -4.762998234541528 -29.707857434852333 142.9815107659864 1.5902773407317584e-15 -37.71405513939356 3.1805546814635176e-15 0.0 0.0 2.4849304779254195 -31.25574874421674 5.825441315452817 0.0 -9.93923337957349e-17 0.0 0.0 -9.93923337957349e-17 0.0 0.0 -9.93923337957349e-17 0.0 0.0 -9.93923337957349e-17 0.0 -174.35389378344013 -19.744718037755007 -176.36322106878288 51.01573957038515 -8.138984674708018e-15 7.407527120283509e-15 -2.823497446615094e-14 85.24540584690634 2.5984045408491012e-14 0.0 0.0 0.0 162.07443774736922 -13.62379125090276 -177.68140237986677 -52.823331039012636 1.6818201519665239e-15 -2.7159378826429472e-15 180.0 -57.74301551354088 180.0 0.0 0.0 0.0 -8.032947811243165 -5.3370204168839466e-15 -9.725651611787982e-16 -3.975693351829396e-16 -6.896728590703373e-34 1.987846675914698e-16
